<?xml version="1.0" standalone="no"?>
<!DOCTYPE svg PUBLIC "-//W3C//DTD SVG 20010904//EN"
 "http://www.w3.org/TR/2001/REC-SVG-20010904/DTD/svg10.dtd">
<svg version="1.0" xmlns="http://www.w3.org/2000/svg"
 width="512.000000pt" height="512.000000pt" viewBox="0 0 512.000000 512.000000"
 preserveAspectRatio="xMidYMid meet">

<g transform="translate(0.000000,512.000000) scale(0.100000,-0.100000)"
fill="#000000" stroke="none">
<path d="M1405 4673 c-47 -24 -86 -64 -106 -108 -16 -35 -19 -68 -19 -277 l0
-236 -177 -4 c-161 -4 -184 -7 -245 -30 -188 -71 -325 -208 -396 -396 -23 -61
-26 -84 -30 -244 l-4 -178 2132 0 2132 0 -4 178 c-4 160 -7 183 -30 244 -72
189 -207 324 -396 396 -61 23 -84 26 -244 30 l-178 4 0 234 c0 190 -3 242 -16
272 -33 79 -110 132 -194 132 -88 0 -152 -38 -193 -115 -21 -37 -22 -57 -25
-282 l-3 -243 -849 0 -849 0 -3 243 c-3 225 -4 245 -25 282 -27 50 -58 80
-105 100 -48 19 -134 19 -173 -2z"/>
<path d="M432 1848 l3 -923 26 -67 c74 -190 207 -323 397 -397 l67 -26 1625 0
1625 0 70 22 c192 61 351 218 418 413 l22 65 3 918 2 917 -2130 0 -2131 0 3
-922z"/>
</g>
</svg>
