<?xml version="1.0" standalone="no"?>
<!DOCTYPE svg PUBLIC "-//W3C//DTD SVG 20010904//EN"
 "http://www.w3.org/TR/2001/REC-SVG-20010904/DTD/svg10.dtd">
<svg version="1.0" xmlns="http://www.w3.org/2000/svg"
 width="512.000000pt" height="512.000000pt" viewBox="0 0 512.000000 512.000000"
 preserveAspectRatio="xMidYMid meet">

<g transform="translate(0.000000,512.000000) scale(0.100000,-0.100000)"
fill="#000000" stroke="none">
<path d="M2425 4425 c-46 -12 -2182 -912 -2252 -949 -49 -25 -120 -111 -139
-169 -48 -140 8 -301 129 -376 50 -31 2205 -940 2267 -957 69 -18 190 -18 260
0 44 12 1793 745 2187 918 112 48 180 114 209 200 38 116 14 234 -67 322 -40
43 -67 62 -142 94 -394 173 -2143 906 -2187 918 -68 17 -199 17 -265 -1z"/>
<path d="M4585 2536 l-100 -43 -3 -140 -3 -141 -30 -12 c-67 -28 -129 -138
-129 -230 0 -55 27 -123 66 -169 l36 -41 -36 -41 c-56 -66 -66 -110 -66 -296
0 -250 4 -253 265 -253 264 0 265 1 265 249 0 200 -7 234 -63 297 l-40 45 31
32 c116 120 89 319 -55 408 l-33 20 -2 179 -3 178 -100 -42z"/>
<path d="M960 1929 c0 -469 4 -502 62 -612 66 -122 137 -182 346 -286 366
-184 706 -268 1127 -278 469 -11 854 75 1270 284 147 74 207 114 265 181 49
55 104 166 119 240 7 34 11 207 11 474 0 396 -1 420 -17 415 -10 -2 -301 -125
-648 -272 -346 -147 -661 -278 -699 -291 -140 -48 -318 -51 -451 -8 -27 9
-342 140 -700 292 -357 151 -658 277 -667 279 -17 5 -18 -20 -18 -418z"/>
</g>
</svg>
