<?xml version="1.0" standalone="no"?>
<!DOCTYPE svg PUBLIC "-//W3C//DTD SVG 20010904//EN"
 "http://www.w3.org/TR/2001/REC-SVG-20010904/DTD/svg10.dtd">
<svg version="1.0" xmlns="http://www.w3.org/2000/svg"
 width="512.000000pt" height="512.000000pt" viewBox="0 0 512.000000 512.000000"
 preserveAspectRatio="xMidYMid meet">

<g transform="translate(0.000000,512.000000) scale(0.100000,-0.100000)"
fill="#000000" stroke="none">
<path d="M2412 5110 c-533 -75 -953 -472 -1063 -1003 -27 -131 -29 -333 -5
-461 102 -535 504 -933 1035 -1021 214 -36 473 -7 673 76 321 132 584 408 702
737 91 253 95 559 11 817 -137 420 -487 736 -925 836 -98 22 -331 33 -428 19z"/>
<path d="M2305 2109 c-304 -31 -659 -131 -909 -256 -244 -123 -492 -318 -649
-513 -232 -288 -366 -655 -370 -1015 -2 -122 0 -133 24 -180 33 -62 106 -120
173 -136 38 -9 499 -10 2000 -5 2198 8 2011 0 2097 86 77 77 91 156 69 381
-87 857 -749 1466 -1760 1620 -155 23 -526 34 -675 18z"/>
</g>
</svg>
